<svg width="15.000000" height="14.999878" viewBox="0 0 15 14.9999" fill="none" xmlns="http://www.w3.org/2000/svg" xmlns:xlink="http://www.w3.org/1999/xlink">
	<desc>
			Created with Pixso.
	</desc>
	<defs/>
	<path id="Vector" d="M14.81 13.93L10.55 9.66C11.37 8.64 11.87 7.34 11.87 5.93C11.87 2.66 9.21 0 5.93 0C2.66 0 0 2.66 0 5.93C0 9.21 2.66 11.87 5.93 11.87C7.35 11.87 8.64 11.37 9.66 10.55L13.93 14.81C14.05 14.93 14.21 14.99 14.37 14.99C14.53 14.99 14.69 14.93 14.81 14.81C15.06 14.57 15.06 14.17 14.81 13.93ZM5.93 10.62C3.35 10.62 1.25 8.52 1.25 5.93C1.25 3.35 3.35 1.24 5.93 1.24C8.52 1.24 10.62 3.35 10.62 5.93C10.62 8.52 8.52 10.62 5.93 10.62Z" fill="#84BE51" fill-opacity="1.000000" fill-rule="nonzero"/>
</svg>
